<svg width="127" height="50" viewBox="0 0 127 50" fill="none" xmlns="http://www.w3.org/2000/svg">
<circle cx="25" cy="25" r="25" fill="white"/>
<path fill-rule="evenodd" clip-rule="evenodd" d="M14.3051 23.3726L15.6408 24.1555V25.7189V27.2846V28.848V30.4114L16.9765 31.1943L18.3122 31.9771L19.6479 32.76L20.9835 33.5427L22.3191 34.3256L23.6548 35.1084L24.9905 35.8913L26.3262 35.1084L27.6619 34.3256L28.9975 33.5427L30.3332 32.76L31.6689 31.9771L33.0046 31.1943L34.3402 30.4114V28.848V27.2846V25.7189V24.1555L35.9963 23.1831L36.3302 22.9936L37.0206 22.5898L38.3563 21.8069L37.0206 21.0241L35.6849 20.2413L34.3492 19.4585L33.0113 18.6779L31.6757 17.895L30.34 17.1121L29.0043 16.3316L27.6686 15.5488L26.3329 14.7659L24.995 13.9854L23.6594 14.7682L22.3237 15.551L20.9858 16.3316L19.6501 17.1145L18.3144 17.8973L16.9787 18.6779L15.6431 19.4607L14.3074 20.2436L12.9717 21.0264L11.6338 21.8069L12.9695 22.5898L14.3051 23.3726ZM24.995 20.2436L23.6594 21.0264L22.3237 21.8069L20.988 22.5898V27.2823L22.3237 28.0652L23.6594 28.848L24.995 29.6331L26.3307 28.8503L27.6664 28.0674L29.0021 27.2846L30.3378 26.5017L31.6734 25.7189V27.2846V28.848L30.3378 29.6308L29.0021 30.4137L27.6664 31.1965L26.3307 31.9794L24.995 32.7622L23.6594 31.9794L22.3237 31.1965L20.988 30.4137L19.6523 29.6308L18.3166 28.848V28.0877V27.2846V25.7189V24.1555V22.592L16.981 21.8093L18.3166 21.0264L19.6523 20.2436L20.988 19.4607L22.3237 18.6779L23.6594 17.8973L24.9973 17.1121L26.3329 17.895L27.6686 18.6779L29.0021 19.4607L30.3378 20.2436L31.6734 21.0264L31.8742 21.1437L33.0091 21.8069L32.5917 22.0506L31.6734 22.5898L30.3378 23.3726L29.0021 24.1555L27.6664 24.9383L26.3307 25.7212L24.995 26.504L23.6594 25.7212V24.1555L24.995 23.3749L26.3307 22.592L27.6664 21.8093L26.3307 21.0264L24.995 20.2436Z" fill="#140342"/>
<path d="M65.1379 33V18.6307H68.6856L72.5903 26.5963L76.4727 18.6307H79.9981V33H76.4058V24.7444L73.5721 30.5456H71.5863L68.7303 24.7444V33H65.1379ZM82.412 20.7504V18.0506H86.3167V20.7504H82.412ZM82.7021 33V25.0791H81.1402L81.4526 22.4239H86.2944V33H82.7021ZM88.5835 33V17.9614H92.1758V23.2048C92.5774 22.9073 93.0757 22.6693 93.6707 22.4908C94.2657 22.2974 94.9054 22.2007 95.5896 22.2007C97.0027 22.2007 98.0366 22.5354 98.6911 23.2048C99.3604 23.8742 99.6951 24.9006 99.6951 26.2839V33H96.1028V26.5294C96.1028 25.9195 95.9764 25.4881 95.7235 25.2352C95.4706 24.9824 95.0169 24.8559 94.3624 24.8559C93.9757 24.8559 93.5815 24.9452 93.1799 25.1237C92.7782 25.3022 92.4436 25.5253 92.1758 25.7931V33H88.5835ZM101.853 33V22.4239H105.2L105.312 23.3387C105.743 23.0412 106.286 22.7809 106.941 22.5577C107.595 22.3197 108.294 22.2007 109.038 22.2007C110.406 22.2007 111.403 22.528 112.028 23.1825C112.653 23.837 112.965 24.8485 112.965 26.217V33H109.373V26.5071C109.373 25.9121 109.246 25.4881 108.993 25.2352C108.74 24.9824 108.287 24.8559 107.632 24.8559C107.246 24.8559 106.851 24.9452 106.45 25.1237C106.048 25.3022 105.713 25.5253 105.446 25.7931V33H101.853ZM118.099 33.2231C117.429 33.2231 116.804 33.1041 116.224 32.8661C115.659 32.6281 115.205 32.2637 114.863 31.7728C114.521 31.2671 114.35 30.6423 114.35 29.8986C114.35 28.8127 114.715 27.9648 115.443 27.3549C116.187 26.7302 117.295 26.4178 118.768 26.4178H121.713V26.1724C121.713 25.6369 121.535 25.2576 121.178 25.0344C120.821 24.7964 120.151 24.6774 119.17 24.6774C117.965 24.6774 116.782 24.8634 115.622 25.2352V22.9147C116.143 22.7065 116.775 22.5354 117.518 22.4016C118.277 22.2677 119.073 22.2007 119.906 22.2007C121.542 22.2007 122.821 22.5354 123.744 23.2048C124.681 23.8742 125.149 24.9377 125.149 26.3955V33H122.003L121.825 32.1075C121.438 32.4645 120.94 32.7397 120.33 32.9331C119.735 33.1264 118.991 33.2231 118.099 33.2231ZM119.237 31.0142C119.802 31.0142 120.293 30.9175 120.709 30.7241C121.126 30.5307 121.46 30.2853 121.713 29.9878V28.4929H119.17C118.113 28.4929 117.585 28.9168 117.585 29.7647C117.585 30.1514 117.719 30.4564 117.987 30.6795C118.255 30.9026 118.671 31.0142 119.237 31.0142Z" fill="white"/>
</svg>
